<svg xmlns="http://www.w3.org/2000/svg" fill="none" viewBox="0 0 1187 411"><g fill="#000" clip-path="url(#a)"><path d="M0 366.88h16.47V271.6H0v-2.5h52.12c24.6 0 34 9 34 21.47 0 14.18-14.39 21.68-25.86 24.18C79 316.63 91.94 326 91.94 341.23s-13.34 28.15-36.69 28.15H0v-2.5Zm30.86-53h16.88c17.31 0 22.94-8.55 22.94-21.68 0-16.89-11.26-20.64-24.4-20.64H30.86v42.32Zm0 53H43c9.59 0 32.52-.21 32.52-25.23 0-23.77-19.18-25.23-28.56-25.23h-16l-.1 50.46ZM181.59 312.67c.21 7.09 4 14.8 7.72 22.1 3.75 7.92 7.71 15.64 7.71 23.14 0 12.09-7.3 13.76-13.34 13.76-11.26 0-16.06-7.09-16.26-21.26-18.35 19.18-30.86 21.26-39 21.26-16.26 0-23.56-9.38-23.56-21.26 0-13.14 9.38-21.9 21.89-28.15-8.76-7.92-13.34-17.51-13.34-27.73 0-15 11.67-27.94 32.31-27.94 17.52 0 35.86 7.09 35.86 33.36l.01 12.72ZM167.42 300c0-20-4.8-30.65-22.94-30.65-16.89 0-28.56 11.05-28.56 25.23 0 10 4.17 18.77 13.13 26.69 11-5 23.56-8.13 38.37-10.64V300Zm-15.22 37.69c-8.55-3.76-15.22-7.3-20.65-11.26-6.46 5-10.21 11.88-10.21 21.27 0 12.71 7.3 17.3 16.06 17.3 10 0 23.35-11.05 30-18.35v-33.56c-12.93 2.29-25 5.83-33.78 11.88A110.677 110.677 0 0 0 153 335.19l-.8 2.5Zm29.39 17.51c0 5.21 1.25 11.47 6.67 11.47 3.13 0 6.26-2.09 6.26-8.76 0-10.21-7.51-21.68-12.93-32.11v29.4ZM204.53 363.12a10.177 10.177 0 0 0 7.5 3.34c14 0 17.94-15.43 20.44-26.69 5-21.89 6-45.66 6-68.17h-17.05v-2.5h82.35v2.5H287.3v95.28h16.47v2.5h-47.12v-2.5h16.47V271.6h-31.69c-.62 23.56-.62 47.74-6.88 71.93-5.84 21.89-14.38 27.72-24.81 27.72-3.34 0-6.46-1.25-8.75-2.08M310.44 366.88h16.47V271.6h-16.47v-2.5h47.12v2.5h-16.47v36.27a82.725 82.725 0 0 1 22.52-2.71c29.18 0 39.4 18.56 39.4 32.11 0 15.64-10.22 33.78-40 33.78-11.88 0-22.1-1.67-37.53-1.67h-15l-.04-2.5Zm30.65.41c4.38.42 13.13 1.25 18.35 1.25 17.51 0 27.1-12.09 27.1-31.27 0-10.84-3.34-29.6-28.36-29.6a65.305 65.305 0 0 0-17.09 2.71v56.91ZM499.33 343.11c-4.33 11.05-14.17 28.56-38.33 28.56-25.64 0-46.28-18.76-46.28-51.49 0-27.32 15.43-53.59 49.41-53.59 15.85 0 27.73 11.05 33.36 25.86l-2.5.83c-5.22-14.18-15.85-24.18-30.86-24.18-17.72 0-32.94 11.88-32.94 51.08 0 32.52 15 47.95 33.15 47.95 12.71 0 25.23-7.92 32.73-25.86l2.26.84ZM563.55 408.78c4.59-13.76 11.26-27.1 27.94-27.1 8.34 0 15.84 3.54 24.18 7.71l5 2.3c10.21 4.79 18.34 8.75 26.89 8.75 13.14 0 17.3-7.92 17.3-15.84 0-9-6-15.22-19.59-15.22h-91.73v-2.5H570V271.6h-16.46v-2.5h45v2.5h-14.35v95.28h49V271.6H618.8v-2.5h45v2.5h-16.44v95.28c14.18.83 20 8.33 20 17.72 0 11.46-8.55 25.85-25.44 25.85-9.38 0-19.8-4.38-30.23-9-9.38-4.18-18.55-7.93-26.27-7.93-9.8 0-16.68 6.26-19.39 16.06l-2.48-.8ZM668.84 366.88h16.47V271.6h-16.47v-2.5H721c24.6 0 34 9 34 21.47 0 14.18-14.38 21.68-25.85 24.18 18.76 1.88 31.69 11.26 31.69 26.48s-13.34 28.15-36.69 28.15h-55.31v-2.5Zm30.85-53h16.89c17.31 0 22.94-8.55 22.94-21.68 0-16.89-11.26-20.64-24.4-20.64h-15.43v42.32Zm0 53h12.1c9.59 0 32.52-.21 32.52-25.23 0-23.77-19.18-25.23-28.56-25.23h-16.06v50.46ZM795 304.54a105.569 105.569 0 0 0-.62 11.67c0 42.74 17.3 53 31.27 53 26.69 0 42.53-26.69 42.53-56.71a78.55 78.55 0 0 0-2.5-19.39l2.5-.83a86.397 86.397 0 0 1 2.5 20.22c0 31.27-16.68 59.21-45 59.21-21.06 0-47.74-12.93-47.74-52.54 0-29.39 17.09-52.54 45.45-52.54 25.85 0 37.52 19.6 37.73 38l-66.12-.09Zm.42-2.5h50c-.21-17.72-7.3-32.94-23.77-32.94-12.92 0-23.13 12.9-26.26 32.9l.03.04ZM973 256.37c-3.75 12.31-5.21 12.72-13.55 12.72H893c-8.55 0-10-.41-13.56-12.72h-2.5c4.21 21.06 7.68 35.52 11.5 50.18l1.46-.48c-1.87-9.59-3.16-18-3.16-23.22 0-10.21 1.67-11.26 10-11.26H919v95.29h-26.46v2.5h67.34v-2.5H933.2v-95.29h22.51c8.34 0 9.8 1.05 9.8 11.26 0 5.25-1.21 13.56-3 23.08l1.66.59c3.72-14.63 7.09-29 11.4-50.15H973ZM985.12 319.34c0-35.23 20.64-52.75 48.78-52.75 27.94 0 48.79 16.06 48.79 52.75 0 31.48-20.85 52.33-48.79 52.33-28.14 0-48.78-20.43-48.78-52.33Zm81.1 0c0-38.57-16-50.24-32.32-50.24-16.46 0-32.31 11.67-32.31 50.24 0 38.36 15.85 49.83 32.31 49.83 16.27 0 32.32-11.47 32.32-49.83ZM1094.37 366.88h16.47V271.6h-16.47v-2.5h52.12c24.6 0 34 9 34 21.47 0 14.18-14.38 21.68-25.85 24.18 18.77 1.88 31.69 11.26 31.69 26.48s-13.34 28.15-36.69 28.15h-55.25l-.02-2.5Zm30.86-53h16.88c17.31 0 22.93-8.55 22.93-21.68 0-16.89-11.25-20.64-24.39-20.64h-15.42v42.32Zm0 53h12.09c9.59 0 32.52-.21 32.52-25.23 0-23.77-19.18-25.23-28.56-25.23h-16l-.05 50.46ZM647.32 42.42c.67-10.73-2.2-21.46-9.83-29.63-20.41-20.16-46.82-14.18-66.31 2-10-3.95-21.09-4.54-31.22.19-25.48 13.19-28 40.15-18.59 63.68-6.85 8.29-10.83 18.66-9.46 29.76 4.66 28.3 29.55 39 54.82 37.36 5.77 9.07 14.39 16.06 25.37 18.19 28.36 4.31 46.21-16.06 52.47-40.6 10.41-2.68 19.73-8.72 25.15-18.51 12.86-25.64-.99-48.86-22.4-62.44ZM596.68 5.56C624 .17 641.57 17.67 641.51 39.08c-11.62-6.06-24.8-9.37-36.92-8.92v2.32a78.148 78.148 0 0 1 36.76 10.15 46.69 46.69 0 0 1-9 23c-6.37 8.3-15 14.52-24.42 19.09.53-18.36-2.93-37.3-13.93-52.5a54.261 54.261 0 0 0-19.39-15.91 63.292 63.292 0 0 1 22.07-10.75Zm-18.3 75.14a110.105 110.105 0 0 1 8.48-11.06A110.535 110.535 0 0 1 600 74.28a111.09 111.09 0 0 1-.35 13.93 109.615 109.615 0 0 1-13.36 4 109.93 109.93 0 0 1-7.91-11.51Zm-57.91-29.14c3.32-27.64 25.39-38.95 45.74-32.28-9.35 9.18-16.57 20.69-19.89 32.36l2.21.72a78 78 0 0 1 21-31.84 46.731 46.731 0 0 1 19.09 15.66c5.92 8.62 9.19 18.7 10.61 29.11-17.29-6.15-36.37-8.74-54.22-3a54.091 54.091 0 0 0-21.12 13.52 63.244 63.244 0 0 1-3.42-24.25Zm20.2 86.69c-25.26-11.7-29.19-36.18-16.56-53.47 5.84 11.73 14.56 22.16 24.63 28.92l1.36-1.88A78.066 78.066 0 0 1 526.32 82a46.55 46.55 0 0 1 20.78-13.31c10-3 20.63-3 31-1.09-11.19 14.54-19.55 31.88-19.58 50.64a54.242 54.242 0 0 0 6.33 24.27 63.266 63.266 0 0 1-24.18-4.26Zm88.69 7.58c-18.93 20.41-43.44 16.59-56-.77 13-1.93 25.58-7 35.13-14.49l-1.37-1.88a77.986 77.986 0 0 1-35.71 13.41 46.624 46.624 0 0 1-6.23-23.88c.27-10.46 3.55-20.54 8.53-29.79 10.37 15.14 24.28 28.44 42.11 34.27a54.258 54.258 0 0 0 25 1.48 63.214 63.214 0 0 1-11.46 21.65Zm16.59-29c2.17-12.93 1.25-26.49-2.93-37.89l-2.21.72a78.077 78.077 0 0 1 1.72 38.1 46.634 46.634 0 0 1-24.64-1.44c-9.86-3.5-18.43-9.73-25.69-17.32 17.6-5.19 34.55-14.3 45.6-29.46a54.149 54.149 0 0 0 9.14-23.34 63.402 63.402 0 0 1 17 17.62c13.6 24.32 2.4 46.45-17.94 53.01h-.05Z"/></g><defs><clipPath id="a"><path fill="#fff" d="M0 0h1186.31v410.45H0z"/></clipPath></defs></svg>