<svg width="164" height="165" viewBox="0 0 164 165" fill="none" xmlns="http://www.w3.org/2000/svg">
<path d="M135.679 42.4192C136.349 31.6892 133.479 20.9592 125.849 12.7892C105.439 -7.37076 79.0286 -1.39076 59.5386 14.7892C49.5386 10.8392 38.4486 10.2492 28.3186 14.9792C2.83859 28.1692 0.318561 55.1292 9.72856 78.6592C2.87856 86.9492 -1.10143 97.3192 0.268569 108.419C4.92857 136.719 29.8185 147.419 55.0885 145.779C60.8585 154.849 69.4785 161.839 80.4585 163.969C108.819 168.279 126.669 147.909 132.929 123.369C143.339 120.689 152.659 114.649 158.079 104.859C170.939 79.2192 157.089 55.9992 135.679 42.4192ZM85.0386 5.55924C112.359 0.169237 129.929 17.6692 129.869 39.0792C118.249 33.0192 105.069 29.7092 92.9486 30.1592V32.4792C105.852 32.7751 118.481 36.2623 129.709 42.6292C128.827 50.9648 125.719 58.9094 120.709 65.6292C114.339 73.9292 105.709 80.1492 96.2886 84.7192C96.8186 66.3592 93.3586 47.4192 82.3586 32.2192C77.2265 25.4743 70.5857 20.0254 62.9686 16.3092C69.5531 11.3198 77.0508 7.6678 85.0386 5.55924ZM66.7386 80.6992C69.3287 76.8371 72.1611 73.1431 75.2186 69.6392C79.6918 70.9079 84.0805 72.4577 88.3586 74.2792C88.533 78.9253 88.4161 83.5778 88.0086 88.2092C83.6447 89.8248 79.1823 91.1608 74.6485 92.2092C71.7707 88.544 69.1288 84.6996 66.7386 80.6992ZM8.82854 51.5592C12.1485 23.9192 34.2186 12.6092 54.5686 19.2792C45.2186 28.4592 37.9986 39.9692 34.6786 51.6392L36.8886 52.3592C41.1458 40.1716 48.3615 29.2312 57.8886 20.5192C65.5409 23.9333 72.1343 29.3421 76.9786 36.1792C82.8986 44.7992 86.1685 54.8792 87.5885 65.2892C70.2985 59.1392 51.2186 56.5492 33.3686 62.2892C25.3667 65.0792 18.1323 69.7103 12.2486 75.8092C9.53962 68.0259 8.3778 59.7882 8.82854 51.5592ZM29.0285 138.249C3.76855 126.549 -0.161449 102.069 12.4686 84.7792C18.3086 96.5092 27.0286 106.939 37.0986 113.699L38.4585 111.819C28.1881 103.998 20.0176 93.7526 14.6786 81.9992C20.2817 75.7739 27.4606 71.1757 35.4585 68.6892C45.4585 65.6892 56.0885 65.6892 66.4585 67.5992C55.2685 82.1392 46.9086 99.4792 46.8786 118.239C47.063 126.713 49.231 135.025 53.2085 142.509C44.9477 142.682 36.7331 141.234 29.0285 138.249ZM117.719 145.829C98.7886 166.239 74.2785 162.419 61.7186 145.059C74.7186 143.129 87.2986 138.059 96.8486 130.569L95.4786 128.689C84.8685 136.046 72.5983 140.654 59.7685 142.099C55.5844 134.843 53.4324 126.594 53.5386 118.219C53.8086 107.759 57.0886 97.6792 62.0686 88.4292C72.4386 103.569 86.3486 116.869 104.179 122.699C112.282 125.135 120.844 125.642 129.179 124.179C126.807 132.074 122.914 139.429 117.719 145.829ZM134.309 116.829C136.479 103.899 135.559 90.3392 131.379 78.9392L129.169 79.6592C132.883 92.0217 133.474 105.112 130.889 117.759C122.695 119.501 114.184 119.003 106.249 116.319C96.3886 112.819 87.8186 106.589 80.5586 98.9992C98.1586 93.8092 115.109 84.6992 126.159 69.5392C130.989 62.5812 134.119 54.587 135.299 46.1992C142.056 50.9124 147.83 56.8973 152.299 63.8192C165.899 88.1392 154.699 110.269 134.359 116.829H134.309Z" fill="black"/>
</svg>
